<?xml version="1.0" encoding="UTF-8" standalone="no"?>
<!DOCTYPE svg PUBLIC "-//W3C//DTD SVG 1.1//EN"
 "http://www.w3.org/Graphics/SVG/1.1/DTD/svg11.dtd">
<!-- Generated by graphviz version 2.38.0 (20140413.2041)
 -->
<!-- Title: %3 Pages: 1 -->
<svg width="909pt" height="898pt"
 viewBox="0.00 0.00 909.00 898.22" xmlns="http://www.w3.org/2000/svg" xmlns:xlink="http://www.w3.org/1999/xlink">
<g id="graph0" class="graph" transform="scale(1 1) rotate(0) translate(4 894.22)">
<title>%3</title>
<polygon fill="white" stroke="none" points="-4,4 -4,-894.22 905,-894.22 905,4 -4,4"/>
<g id="clust1" class="cluster"><title>cluster_preprocessing</title>
<polygon fill="none" stroke="black" points="406,-699.22 406,-846.22 572,-846.22 572,-699.22 406,-699.22"/>
<text text-anchor="middle" x="489" y="-831.02" font-family="Times New Roman,serif" font-size="14.00">Preprocessing</text>
</g>
<g id="clust2" class="cluster"><title>cluster_artifactRemover</title>
<polygon fill="none" stroke="black" points="370,-318.48 370,-627.22 608,-627.22 608,-318.48 370,-318.48"/>
<text text-anchor="middle" x="489" y="-612.02" font-family="Times New Roman,serif" font-size="14.00">Artifact Remover</text>
</g>
<g id="clust3" class="cluster"><title>cluster_spikeDetection</title>
<polygon fill="none" stroke="black" points="8,-64 8,-246.48 893,-246.48 893,-64 8,-64"/>
<text text-anchor="middle" x="450.5" y="-231.28" font-family="Times New Roman,serif" font-size="14.00">Spike Detection</text>
</g>
<!-- input -->
<g id="node1" class="node"><title>input</title>
<polygon fill="none" stroke="black" points="525.5,-890.22 452.5,-890.22 452.5,-854.22 525.5,-854.22 525.5,-890.22"/>
<text text-anchor="middle" x="489" y="-868.52" font-family="Times New Roman,serif" font-size="14.00">EEG Data</text>
</g>
<!-- bandpass -->
<g id="node2" class="node"><title>bandpass</title>
<ellipse fill="none" stroke="black" cx="489" cy="-797.22" rx="75.2868" ry="18"/>
<text text-anchor="middle" x="489" y="-793.52" font-family="Times New Roman,serif" font-size="14.00">Bandpass 1&#45;70Hz</text>
</g>
<!-- input&#45;&gt;bandpass -->
<g id="edge1" class="edge"><title>input&#45;&gt;bandpass</title>
<path fill="none" stroke="black" d="M489,-853.92C489,-845.466 489,-835.089 489,-825.594"/>
<polygon fill="black" stroke="black" points="492.5,-825.396 489,-815.396 485.5,-825.396 492.5,-825.396"/>
</g>
<!-- notchreject -->
<g id="node3" class="node"><title>notchreject</title>
<ellipse fill="none" stroke="black" cx="489" cy="-725.22" rx="74.187" ry="18"/>
<text text-anchor="middle" x="489" y="-721.52" font-family="Times New Roman,serif" font-size="14.00">Notchreject 60Hz</text>
</g>
<!-- bandpass&#45;&gt;notchreject -->
<g id="edge2" class="edge"><title>bandpass&#45;&gt;notchreject</title>
<path fill="none" stroke="black" d="M489,-778.917C489,-771.203 489,-761.933 489,-753.333"/>
<polygon fill="black" stroke="black" points="492.5,-753.325 489,-743.325 485.5,-753.325 492.5,-753.325"/>
</g>
<!-- ndata -->
<g id="node4" class="node"><title>ndata</title>
<polygon fill="none" stroke="black" points="533,-671.22 445,-671.22 445,-635.22 533,-635.22 533,-671.22"/>
<text text-anchor="middle" x="489" y="-649.52" font-family="Times New Roman,serif" font-size="14.00">Filtered Data</text>
</g>
<!-- notchreject&#45;&gt;ndata -->
<g id="edge3" class="edge"><title>notchreject&#45;&gt;ndata</title>
<path fill="none" stroke="black" d="M489,-706.917C489,-699.203 489,-689.933 489,-681.333"/>
<polygon fill="black" stroke="black" points="492.5,-681.325 489,-671.325 485.5,-681.325 492.5,-681.325"/>
</g>
<!-- eyeMovementRemover -->
<g id="node5" class="node"><title>eyeMovementRemover</title>
<ellipse fill="none" stroke="black" cx="489" cy="-578.22" rx="98.2828" ry="18"/>
<text text-anchor="middle" x="489" y="-574.52" font-family="Times New Roman,serif" font-size="14.00">Remove Eye Movement</text>
</g>
<!-- ndata&#45;&gt;eyeMovementRemover -->
<g id="edge4" class="edge"><title>ndata&#45;&gt;eyeMovementRemover</title>
<path fill="none" stroke="black" d="M489,-634.92C489,-626.466 489,-616.089 489,-606.594"/>
<polygon fill="black" stroke="black" points="492.5,-606.396 489,-596.396 485.5,-606.396 492.5,-606.396"/>
</g>
<!-- sweatArtifactRemover -->
<g id="node6" class="node"><title>sweatArtifactRemover</title>
<ellipse fill="none" stroke="black" cx="489" cy="-506.22" rx="98.5829" ry="18"/>
<text text-anchor="middle" x="489" y="-502.52" font-family="Times New Roman,serif" font-size="14.00">Remove Sweat Artifacts</text>
</g>
<!-- eyeMovementRemover&#45;&gt;sweatArtifactRemover -->
<g id="edge5" class="edge"><title>eyeMovementRemover&#45;&gt;sweatArtifactRemover</title>
<path fill="none" stroke="black" d="M489,-559.917C489,-552.203 489,-542.933 489,-534.333"/>
<polygon fill="black" stroke="black" points="492.5,-534.325 489,-524.325 485.5,-534.325 492.5,-534.325"/>
</g>
<!-- electrodePoppingRemover -->
<g id="node7" class="node"><title>electrodePoppingRemover</title>
<ellipse fill="none" stroke="black" cx="489" cy="-434.22" rx="111.28" ry="18"/>
<text text-anchor="middle" x="489" y="-430.52" font-family="Times New Roman,serif" font-size="14.00">Remove Electrode Popping</text>
</g>
<!-- sweatArtifactRemover&#45;&gt;electrodePoppingRemover -->
<g id="edge6" class="edge"><title>sweatArtifactRemover&#45;&gt;electrodePoppingRemover</title>
<path fill="none" stroke="black" d="M489,-487.917C489,-480.203 489,-470.933 489,-462.333"/>
<polygon fill="black" stroke="black" points="492.5,-462.325 489,-452.325 485.5,-462.325 492.5,-462.325"/>
</g>
<!-- ekgArtifactRemover -->
<g id="node8" class="node"><title>ekgArtifactRemover</title>
<ellipse fill="none" stroke="black" cx="489" cy="-353.35" rx="96.7474" ry="26.7407"/>
<text text-anchor="middle" x="489" y="-357.15" font-family="Times New Roman,serif" font-size="14.00">Remove EKG&#45;linked </text>
<text text-anchor="middle" x="489" y="-342.15" font-family="Times New Roman,serif" font-size="14.00">periodic elements</text>
</g>
<!-- electrodePoppingRemover&#45;&gt;ekgArtifactRemover -->
<g id="edge7" class="edge"><title>electrodePoppingRemover&#45;&gt;ekgArtifactRemover</title>
<path fill="none" stroke="black" d="M489,-416.107C489,-408.617 489,-399.526 489,-390.648"/>
<polygon fill="black" stroke="black" points="492.5,-390.433 489,-380.433 485.5,-390.433 492.5,-390.433"/>
</g>
<!-- ndata2 -->
<g id="node9" class="node"><title>ndata2</title>
<polygon fill="none" stroke="black" points="568,-290.48 410,-290.48 410,-254.48 568,-254.48 568,-290.48"/>
<text text-anchor="middle" x="489" y="-268.78" font-family="Times New Roman,serif" font-size="14.00">data after artifact removal</text>
</g>
<!-- ekgArtifactRemover&#45;&gt;ndata2 -->
<g id="edge8" class="edge"><title>ekgArtifactRemover&#45;&gt;ndata2</title>
<path fill="none" stroke="black" d="M489,-326.088C489,-317.987 489,-309.048 489,-300.873"/>
<polygon fill="black" stroke="black" points="492.5,-300.7 489,-290.7 485.5,-300.7 492.5,-300.7"/>
</g>
<!-- waveletSpikeMethod -->
<g id="node10" class="node"><title>waveletSpikeMethod</title>
<ellipse fill="none" stroke="black" cx="781" cy="-188.61" rx="103.889" ry="26.7407"/>
<text text-anchor="middle" x="781" y="-192.41" font-family="Times New Roman,serif" font-size="14.00">CWT </text>
<text text-anchor="middle" x="781" y="-177.41" font-family="Times New Roman,serif" font-size="14.00">+ Amplitude Threshold</text>
</g>
<!-- ndata2&#45;&gt;waveletSpikeMethod -->
<g id="edge9" class="edge"><title>ndata2&#45;&gt;waveletSpikeMethod</title>
<path fill="none" stroke="black" d="M568.2,-266.046C599.762,-262.435 636.1,-256.436 668,-246.48 690.081,-239.589 713.119,-228.742 732.59,-218.361"/>
<polygon fill="black" stroke="black" points="734.444,-221.337 741.554,-213.482 731.097,-215.189 734.444,-221.337"/>
</g>
<!-- nnetSpikeMethod -->
<g id="node11" class="node"><title>nnetSpikeMethod</title>
<ellipse fill="none" stroke="black" cx="591" cy="-188.61" rx="67.6881" ry="18"/>
<text text-anchor="middle" x="591" y="-184.91" font-family="Times New Roman,serif" font-size="14.00">Neural Network</text>
</g>
<!-- ndata2&#45;&gt;nnetSpikeMethod -->
<g id="edge10" class="edge"><title>ndata2&#45;&gt;nnetSpikeMethod</title>
<path fill="none" stroke="black" d="M510.632,-254.118C525.77,-241.967 546.146,-225.612 562.593,-212.411"/>
<polygon fill="black" stroke="black" points="565.179,-214.823 570.787,-205.834 560.798,-209.364 565.179,-214.823"/>
</g>
<!-- targetCorrelationMethod -->
<g id="node12" class="node"><title>targetCorrelationMethod</title>
<ellipse fill="none" stroke="black" cx="388" cy="-188.61" rx="117.26" ry="26.7407"/>
<text text-anchor="middle" x="388" y="-192.41" font-family="Times New Roman,serif" font-size="14.00">Targeted Correlation </text>
<text text-anchor="middle" x="388" y="-177.41" font-family="Times New Roman,serif" font-size="14.00">with Sample Spike Kernels</text>
</g>
<!-- ndata2&#45;&gt;targetCorrelationMethod -->
<g id="edge11" class="edge"><title>ndata2&#45;&gt;targetCorrelationMethod</title>
<path fill="none" stroke="black" d="M467.58,-254.118C455.77,-244.544 440.739,-232.36 426.929,-221.166"/>
<polygon fill="black" stroke="black" points="428.945,-218.294 418.973,-214.716 424.537,-223.732 428.945,-218.294"/>
</g>
<!-- hardCodedRulesMethod -->
<g id="node13" class="node"><title>hardCodedRulesMethod</title>
<ellipse fill="none" stroke="black" cx="134" cy="-188.61" rx="118.079" ry="18"/>
<text text-anchor="middle" x="134" y="-184.91" font-family="Times New Roman,serif" font-size="14.00">Hardcoded Knowledge Rules</text>
</g>
<!-- ndata2&#45;&gt;hardCodedRulesMethod -->
<g id="edge12" class="edge"><title>ndata2&#45;&gt;hardCodedRulesMethod</title>
<path fill="none" stroke="black" d="M409.886,-268.75C365.75,-265.746 310.131,-259.485 262,-246.48 230.985,-238.1 197.889,-223.222 173.122,-210.785"/>
<polygon fill="black" stroke="black" points="174.557,-207.588 164.06,-206.157 171.374,-213.822 174.557,-207.588"/>
</g>
<!-- spikefuser -->
<g id="node14" class="node"><title>spikefuser</title>
<ellipse fill="none" stroke="black" cx="489" cy="-98.8701" rx="113.689" ry="26.7407"/>
<text text-anchor="middle" x="489" y="-102.67" font-family="Times New Roman,serif" font-size="14.00">Probabilistic Spike Model</text>
<text text-anchor="middle" x="489" y="-87.6701" font-family="Times New Roman,serif" font-size="14.00">Meta&#45;Algorithmic Fuser</text>
</g>
<!-- waveletSpikeMethod&#45;&gt;spikefuser -->
<g id="edge13" class="edge"><title>waveletSpikeMethod&#45;&gt;spikefuser</title>
<path fill="none" stroke="black" d="M715.105,-167.81C671.213,-154.622 613.332,-137.229 567.12,-123.344"/>
<polygon fill="black" stroke="black" points="568.03,-119.962 557.446,-120.437 566.015,-126.666 568.03,-119.962"/>
</g>
<!-- nnetSpikeMethod&#45;&gt;spikefuser -->
<g id="edge14" class="edge"><title>nnetSpikeMethod&#45;&gt;spikefuser</title>
<path fill="none" stroke="black" d="M571.815,-171.107C558.939,-160.032 541.56,-145.082 526.046,-131.737"/>
<polygon fill="black" stroke="black" points="528.001,-128.802 518.137,-124.934 523.436,-134.109 528.001,-128.802"/>
</g>
<!-- targetCorrelationMethod&#45;&gt;spikefuser -->
<g id="edge15" class="edge"><title>targetCorrelationMethod&#45;&gt;spikefuser</title>
<path fill="none" stroke="black" d="M416.943,-162.467C427.931,-152.922 440.595,-141.92 452.212,-131.829"/>
<polygon fill="black" stroke="black" points="454.799,-134.217 460.053,-125.017 450.209,-128.932 454.799,-134.217"/>
</g>
<!-- hardCodedRulesMethod&#45;&gt;spikefuser -->
<g id="edge16" class="edge"><title>hardCodedRulesMethod&#45;&gt;spikefuser</title>
<path fill="none" stroke="black" d="M193.419,-172.924C250.587,-158.795 337.663,-137.274 402.516,-121.245"/>
<polygon fill="black" stroke="black" points="403.453,-124.619 412.321,-118.822 401.774,-117.823 403.453,-124.619"/>
</g>
<!-- spikeEstimates -->
<g id="node15" class="node"><title>spikeEstimates</title>
<polygon fill="none" stroke="black" points="541.5,-36 436.5,-36 436.5,-0 541.5,-0 541.5,-36"/>
<text text-anchor="middle" x="489" y="-14.3" font-family="Times New Roman,serif" font-size="14.00">Spike Estimates</text>
</g>
<!-- spikefuser&#45;&gt;spikeEstimates -->
<g id="edge17" class="edge"><title>spikefuser&#45;&gt;spikeEstimates</title>
<path fill="none" stroke="black" d="M489,-71.6075C489,-63.5064 489,-54.5675 489,-46.3924"/>
<polygon fill="black" stroke="black" points="492.5,-46.22 489,-36.22 485.5,-46.2201 492.5,-46.22"/>
</g>
</g>
</svg>
