<?xml version="1.0" encoding="UTF-8" standalone="no"?>
<!DOCTYPE svg PUBLIC "-//W3C//DTD SVG 1.1//EN"
 "http://www.w3.org/Graphics/SVG/1.1/DTD/svg11.dtd">
<!-- Generated by graphviz version 2.38.0 (20140413.2041)
 -->
<!-- Title: G Pages: 1 -->
<svg width="613pt" height="327pt"
 viewBox="0.00 0.00 613.00 327.00" xmlns="http://www.w3.org/2000/svg" xmlns:xlink="http://www.w3.org/1999/xlink">
<g id="graph0" class="graph" transform="scale(1 1) rotate(0) translate(4 323)">
<title>G</title>
<polygon fill="white" stroke="none" points="-4,4 -4,-323 609,-323 609,4 -4,4"/>
<text text-anchor="middle" x="302.5" y="-6.6" font-family="Times New Roman,serif" font-size="8.00">SEAT Component Diagram</text>
<!-- GUI -->
<g id="node1" class="node"><title>GUI</title>
<polygon fill="none" stroke="black" points="288,-257.5 288,-318.5 461,-318.5 461,-257.5 288,-257.5"/>
<text text-anchor="middle" x="374.5" y="-308.1" font-family="Times New Roman,serif" font-size="8.00">GUI.py</text>
<polyline fill="none" stroke="black" points="288,-301.5 461,-301.5 "/>
<text text-anchor="start" x="296" y="-291.1" font-family="Times New Roman,serif" font-size="8.00">responsible for receiving input from the user,</text>
<text text-anchor="start" x="296" y="-282.1" font-family="Times New Roman,serif" font-size="8.00">and configuring and displaying all GUI</text>
<text text-anchor="start" x="296" y="-273.1" font-family="Times New Roman,serif" font-size="8.00">widgets (dialog boxes, sliders,</text>
<text text-anchor="start" x="296" y="-264.1" font-family="Times New Roman,serif" font-size="8.00">scrollbars, input boxes, menus, etc...)</text>
</g>
<!-- CanvasHandler -->
<g id="node2" class="node"><title>CanvasHandler</title>
<polygon fill="none" stroke="black" points="183,-97.5 183,-140.5 344,-140.5 344,-97.5 183,-97.5"/>
<text text-anchor="middle" x="263.5" y="-130.1" font-family="Times New Roman,serif" font-size="8.00">CanvasHandler.py</text>
<polyline fill="none" stroke="black" points="183,-123.5 344,-123.5 "/>
<text text-anchor="start" x="191" y="-113.1" font-family="Times New Roman,serif" font-size="8.00">responsible for encapsulating logic</text>
<text text-anchor="middle" x="263.5" y="-104.1" font-family="Times New Roman,serif" font-size="8.00">relating to OpenGL control of the canvas</text>
</g>
<!-- GUI&#45;&gt;CanvasHandler -->
<g id="edge1" class="edge"><title>GUI&#45;&gt;CanvasHandler</title>
<path fill="none" stroke="black" d="M287.655,-264.159C266.736,-254.368 246.876,-240.516 234.5,-221 220.651,-199.161 231.03,-170.541 243.053,-149.345"/>
<polygon fill="black" stroke="black" points="246.066,-151.126 248.24,-140.757 240.074,-147.507 246.066,-151.126"/>
</g>
<!-- EEGScrollArea -->
<g id="node5" class="node"><title>EEGScrollArea</title>
<polygon fill="none" stroke="black" points="244,-177.5 244,-220.5 399,-220.5 399,-177.5 244,-177.5"/>
<text text-anchor="middle" x="321.5" y="-210.1" font-family="Times New Roman,serif" font-size="8.00">EEGScrollArea.py</text>
<polyline fill="none" stroke="black" points="244,-203.5 399,-203.5 "/>
<text text-anchor="start" x="252" y="-193.1" font-family="Times New Roman,serif" font-size="8.00">represents a widget which wraps an</text>
<text text-anchor="start" x="252" y="-184.1" font-family="Times New Roman,serif" font-size="8.00">EEGCanvas and adds scrollbar capability</text>
</g>
<!-- GUI&#45;&gt;EEGScrollArea -->
<g id="edge2" class="edge"><title>GUI&#45;&gt;EEGScrollArea</title>
<path fill="none" stroke="black" d="M356.26,-257.06C350.781,-248.065 344.778,-238.21 339.325,-229.26"/>
<polygon fill="black" stroke="black" points="342.288,-227.396 334.096,-220.676 336.31,-231.037 342.288,-227.396"/>
</g>
<!-- DataProcessing -->
<g id="node6" class="node"><title>DataProcessing</title>
<polygon fill="none" stroke="black" points="364,-17.5 364,-60.5 491,-60.5 491,-17.5 364,-17.5"/>
<text text-anchor="middle" x="427.5" y="-50.1" font-family="Times New Roman,serif" font-size="8.00">DataProcessing.py</text>
<polyline fill="none" stroke="black" points="364,-43.5 491,-43.5 "/>
<text text-anchor="start" x="372" y="-33.1" font-family="Times New Roman,serif" font-size="8.00">Contains algorithms which</text>
<text text-anchor="middle" x="427.5" y="-24.1" font-family="Times New Roman,serif" font-size="8.00">perform processing on the data.</text>
</g>
<!-- GUI&#45;&gt;DataProcessing -->
<g id="edge5" class="edge"><title>GUI&#45;&gt;DataProcessing</title>
<path fill="none" stroke="black" d="M392.703,-257.432C398.698,-246.379 404.776,-233.474 408.5,-221 423.803,-169.747 427.175,-107.128 427.704,-70.5893"/>
<polygon fill="black" stroke="black" points="431.204,-70.5954 427.786,-60.567 424.204,-70.5379 431.204,-70.5954"/>
</g>
<!-- QIPythonWidget -->
<g id="node7" class="node"><title>QIPythonWidget</title>
<polygon fill="none" stroke="black" points="456,-181 456,-217 605,-217 605,-181 456,-181"/>
<text text-anchor="middle" x="530.5" y="-206.1" font-family="Times New Roman,serif" font-size="8.00">QIPythonWidget.py</text>
<polyline fill="none" stroke="black" points="456,-199 605,-199 "/>
<text text-anchor="start" x="464" y="-188.1" font-family="Times New Roman,serif" font-size="8.00">enables embedding of IPython console</text>
</g>
<!-- GUI&#45;&gt;QIPythonWidget -->
<g id="edge3" class="edge"><title>GUI&#45;&gt;QIPythonWidget</title>
<path fill="none" stroke="black" d="M427.75,-257.303C448.476,-245.744 471.803,-232.735 490.986,-222.037"/>
<polygon fill="black" stroke="black" points="492.732,-225.07 499.761,-217.143 489.322,-218.957 492.732,-225.07"/>
</g>
<!-- LineDrawer -->
<g id="node3" class="node"><title>LineDrawer</title>
<polygon fill="none" stroke="black" points="0,-17.5 0,-60.5 163,-60.5 163,-17.5 0,-17.5"/>
<text text-anchor="middle" x="81.5" y="-50.1" font-family="Times New Roman,serif" font-size="8.00">LineDrawer.py</text>
<polyline fill="none" stroke="black" points="0,-43.5 163,-43.5 "/>
<text text-anchor="start" x="8" y="-33.1" font-family="Times New Roman,serif" font-size="8.00">responsible for generating OpenGL</text>
<text text-anchor="middle" x="81.5" y="-24.1" font-family="Times New Roman,serif" font-size="8.00">vertex data for drawing spike annotations.</text>
</g>
<!-- CanvasHandler&#45;&gt;LineDrawer -->
<g id="edge7" class="edge"><title>CanvasHandler&#45;&gt;LineDrawer</title>
<path fill="none" stroke="black" d="M215.205,-97.3022C191.673,-87.2172 163.215,-75.0205 138.611,-64.4763"/>
<polygon fill="black" stroke="black" points="139.959,-61.2461 129.389,-60.5239 137.202,-67.6801 139.959,-61.2461"/>
</g>
<!-- TextDrawer -->
<g id="node4" class="node"><title>TextDrawer</title>
<polygon fill="none" stroke="black" points="181.5,-17.5 181.5,-60.5 345.5,-60.5 345.5,-17.5 181.5,-17.5"/>
<text text-anchor="middle" x="263.5" y="-50.1" font-family="Times New Roman,serif" font-size="8.00">TextDrawer.py</text>
<polyline fill="none" stroke="black" points="181.5,-43.5 345.5,-43.5 "/>
<text text-anchor="start" x="189.5" y="-33.1" font-family="Times New Roman,serif" font-size="8.00">responsible for generating OpenGL</text>
<text text-anchor="middle" x="263.5" y="-24.1" font-family="Times New Roman,serif" font-size="8.00">vertex data for drawing text to the canvas.</text>
</g>
<!-- CanvasHandler&#45;&gt;TextDrawer -->
<g id="edge8" class="edge"><title>CanvasHandler&#45;&gt;TextDrawer</title>
<path fill="none" stroke="black" d="M263.5,-97.0974C263.5,-89.077 263.5,-79.7444 263.5,-70.9772"/>
<polygon fill="black" stroke="black" points="267,-70.6898 263.5,-60.6898 260,-70.6898 267,-70.6898"/>
</g>
<!-- CanvasHandler&#45;&gt;DataProcessing -->
<g id="edge6" class="edge"><title>CanvasHandler&#45;&gt;DataProcessing</title>
<path fill="none" stroke="black" d="M307.018,-97.3022C327.943,-87.3505 353.19,-75.3425 375.156,-64.8952"/>
<polygon fill="black" stroke="black" points="376.82,-67.9797 384.347,-60.5239 373.813,-61.6582 376.82,-67.9797"/>
</g>
<!-- EEGScrollArea&#45;&gt;CanvasHandler -->
<g id="edge4" class="edge"><title>EEGScrollArea&#45;&gt;CanvasHandler</title>
<path fill="none" stroke="black" d="M305.957,-177.097C299.534,-168.46 291.98,-158.301 285.038,-148.965"/>
<polygon fill="black" stroke="black" points="287.66,-146.626 278.885,-140.69 282.043,-150.803 287.66,-146.626"/>
</g>
</g>
</svg>
